<svg width="20" height="20" viewBox="0 0 20 20" fill="none" xmlns="http://www.w3.org/2000/svg">
<g clip-path="url(#clip0_1_40)">
<path fill-rule="evenodd" clip-rule="evenodd" d="M14.16 8.78792C13.4562 6.95542 11.6675 5.66329 9.44432 6.07578C6.98661 6.5318 5.37539 8.76559 5.71059 11.1963C5.83053 12.0661 6.20802 13.4592 6.59527 14.7623C6.98847 16.0855 7.41228 17.3828 7.64791 18.0913C7.64971 18.0967 7.65152 18.1022 7.65338 18.1078C7.68035 18.189 7.7139 18.29 7.75115 18.378C7.79572 18.4833 7.86646 18.623 7.99203 18.756C8.15876 18.9326 8.37582 19.0578 8.61207 19.114C8.78999 19.1563 8.9464 19.1476 9.05991 19.1336C9.15474 19.1218 9.25899 19.1004 9.34274 19.0832C9.34849 19.082 9.35424 19.0808 9.35974 19.0797C10.0912 18.9295 11.4266 18.6478 12.7691 18.3268C14.0913 18.0106 15.4865 17.6409 16.2997 17.3099C18.5612 16.3894 19.7406 13.8806 18.8635 11.5055C18.0817 9.38842 16.0973 8.48001 14.16 8.78792Z" fill="black" fill-opacity="0.9"/>
<path d="M12.1627 1.24403C10.113 0.299859 8.06742 1.06063 6.9153 2.64826C5.12179 1.85019 2.94337 2.20129 1.66302 4.06499C0.247608 6.1253 0.687827 8.84418 2.64366 10.3259C2.99332 10.5908 3.48269 10.9038 4.03605 11.2326C3.68704 7.98523 5.8806 5.0419 9.14024 4.43709C11.4776 4.00343 13.4435 4.92324 14.6919 6.43958C15.1891 4.37825 14.2198 2.19156 12.1627 1.24403Z" fill="black" fill-opacity="0.9"/>
</g>
<defs>
<clipPath id="clip0_1_40">
<rect width="20" height="20" fill="white"/>
</clipPath>
</defs>
</svg>
