<svg xmlns="http://www.w3.org/2000/svg" xmlns:xlink="http://www.w3.org/1999/xlink" version="1.1" x="0px" y="0px" viewBox="0 0 100 125" enable-background="new 0 0 100 100" xml:space="preserve"><g><path fill="#000000" d="M50.3,90.7c-1.5,0-3.1-0.6-4.3-1.7L15.6,61c-5.4-5-9-11.5-10.2-18.4c-1-5.7-0.4-11.6,1.7-17   C11.3,15.1,19.5,9.3,30.3,9.3c8,0,15.2,3.6,20,9.2c4.8-5.6,12-9.2,20-9.2c8.4,0,15.3,4.1,20.1,11.9c3.7,6.1,5.3,13.5,4.4,20.7   c-0.9,7.5-4.7,14.5-10.5,19.9L54.6,89C53.3,90.1,51.8,90.7,50.3,90.7z M30.3,22c-5.6,0-9.1,2.6-11.3,8.3c-1.3,3.2-1.6,6.8-1,10.2   c0.7,4.1,2.9,8.1,6.3,11.2l26,24l25.4-23.3c3.6-3.3,5.9-7.6,6.5-12.1c0.5-4.4-0.4-8.8-2.6-12.5c-3.2-5.2-6.8-5.8-9.3-5.8   c-7.5,0-13.6,6.1-13.6,13.6c0,3.5-2.8,6.3-6.3,6.3c-3.5,0-6.3-2.8-6.3-6.3C43.9,28.1,37.8,22,30.3,22z"/></g><text x="0" y="115" fill="#000000" font-size="5px" font-weight="bold" font-family="'Helvetica Neue', Helvetica, Arial-Unicode, Arial, Sans-serif">Created by Egorova Valentina</text><text x="0" y="120" fill="#000000" font-size="5px" font-weight="bold" font-family="'Helvetica Neue', Helvetica, Arial-Unicode, Arial, Sans-serif">from the Noun Project</text></svg>